<?xml version="1.0" standalone="no"?>
<!DOCTYPE svg PUBLIC "-//W3C//DTD SVG 20010904//EN"
 "http://www.w3.org/TR/2001/REC-SVG-20010904/DTD/svg10.dtd">
<svg version="1.0" xmlns="http://www.w3.org/2000/svg"
 width="980.000000pt" height="942.000000pt" viewBox="0 0 980.000000 942.000000"
 preserveAspectRatio="xMidYMid meet">

<g transform="translate(0.000000,942.000000) scale(0.100000,-0.100000)"
fill="#000000" stroke="none">
<path d="M4624 9402 c-28 -10 -73 -37 -100 -59 -27 -23 -1044 -1038 -2261
-2255 -1572 -1574 -2218 -2226 -2234 -2258 -33 -64 -33 -176 0 -240 34 -67
4487 -4521 4556 -4558 40 -21 64 -26 120 -26 157 -1 264 100 273 257 8 135
187 -56 -2032 2164 l-2001 2003 4325 2 4325 3 51 27 c202 106 202 392 2 492
l-52 26 -4323 0 c-2378 0 -4323 3 -4323 7 0 5 902 910 2004 2013 l2005 2005
16 59 c61 214 -145 412 -351 338z"/>
</g>
</svg>
