<?xml version="1.0" encoding="iso-8859-1"?>
<!-- Generator: Adobe Illustrator 19.0.0, SVG Export Plug-In . SVG Version: 6.00 Build 0)  -->
<svg version="1.1" id="Capa_1" xmlns="http://www.w3.org/2000/svg" xmlns:xlink="http://www.w3.org/1999/xlink" x="0px" y="0px"
	 viewBox="0 0 512.001 512.001" style="enable-background:new 0 0 512.001 512.001;" xml:space="preserve">
<path style="fill:#F0F2FA;" d="M11.125,84.573c-3.875,7.296-1.703,19.948-2.618,28.274c-0.892,8.113-1.7,16.267-2,24.428
	c-0.469,12.761-0.98,25.355-2.088,38.1c-2.461,28.314-1.413,58.344,0.879,86.671c1.028,12.704,2.111,25.373,3.128,38.084
	c1.005,12.562-0.039,26.172,2.707,38.448c1.669,7.461,2.968,6.117,11.651,6.843c9.441,0.79,21.739,3.602,30.945,1.089
	c-9.08-20.296-3.999-46.439-4.604-67.945c-0.756-26.863,0.216-52.723,4.08-79.341c1.507-10.382-1.036-26.852,9.896-30.851
	c24.676-9.026,57.161-5.291,82.639-3.614c53.784,3.54,108.116,1.424,161.945,0.179c50.088-1.158,100.447-1.534,150.448-3.849
	c0.156-10.396,2.219-20.58,2.844-30.941c0.846-14.032,0.99-34.147-3.12-47.76c-2.956-9.791-10.985-6.236-21.243-6.275
	c-42-0.161-83.79-4.256-125.848-2.192c-42.034,2.062-84.144,3.444-126.209,4.654c-32.985,0.949-66.033-0.684-99.022,0.251
	c-15.938,0.452-31.873,0.523-47.788,1.13c-6.367,0.243-14.438,2.442-20.634,0.952C14.702,83.334,12.706,86.082,11.125,84.573z"/>
<g>
	<path style="fill:#D8DEEC;" d="M10.564,90.345c-2.725,27.09-5.927,53.881-5.044,81.154c0.793,24.495-3.14,48.582-3.744,72.974
		c-0.457,18.461,0.033,37.356,2.161,55.713c0.884,7.633,1.805,15.249,2.766,22.862c0.625,4.952,0.886,12.913,3.323,17.414
		c4.037,7.458,19.641,5.357,27.236,5.248c3.412-0.049,10.974,1.423,13.549-1.18c0.648-0.655,0.454-0.663,0.8-1.602
		c2.081-5.639,0.057-20.6-0.086-25.498c-0.435-14.883-0.999-29.576-0.815-44.467c0.16-12.972,1.86-25.635,2.547-38.544
		c0.67-12.597,2.183-25.144,1.658-37.781c-0.248-5.95-1.767-14.654,0.628-20.382c5.551-13.279,31.098-9.869,42.368-10.66
		c13.972-0.98,27.783,0.296,41.741,0.22c-22.191-12.043-45.615-23.187-65.464-38.997C54.844,111.413,32.285,101.153,10.564,90.345z"
		/>
	<path style="fill:#D8DEEC;" d="M332.517,162.1c6.633-8.072,20.772-14.098,29.463-19.392c19.17-11.677,37.124-25.193,56.363-36.725
		c9.819-5.886,17.544-15.83,27.468-21.166c11.224-6.035,10.432,10.476,10.714,17.795c0.579,15.035,0.235,31.204-0.445,46.291
		c-0.194,4.297-0.352,10.526-1.617,14.388c-4.445-2.695-10.672-1.223-15.531-1.002c-15.734,0.714-30.579-1.925-46.384,0.145
		c-6.815,0.893-14.012,2.468-20.9,1.323c-3.673-0.611-6.931-2.39-10.669-2.704c-5.012-0.42-8.665,1.001-12.821,3.743"/>
</g>
<path style="fill:#BCE0F9;" d="M61.394,169.666c-8.052,8.238-8.486,26.197-9.538,37.144c-1.474,15.335-2.403,32.026-2.138,47.389
	c0.506,29.438,3.869,59.339,5.977,88.72c1.755,24.467,3.857,48.772,2.617,73.324c-0.233,4.616-2.064,12.698,2.075,16.427
	c2.822,2.543,11.319,2.531,15.045,3.057c11.378,1.604,23.42-0.047,34.887-0.034c27.286,0.03,54.565,1.655,81.846,0.428
	c26.882-1.208,53.274-3.263,80.226-2.519c65.22,1.8,130.276,1.406,195.511,1.592c7.605,0.022,17.655,1.193,23.849-4.242
	c8.102-7.109,9.05-24.026,9.898-33.838c3.178-36.768,0.827-73.318,0.081-110.11c-0.537-26.466,4.769-51.739,2.297-78.412
	c-0.976-10.533-1.104-20.767-1.263-31.302c-0.093-6.188-1.415-11.167-7.721-13.913c-7.782-3.389-19.82-2.409-28.003-2.384
	c-12.506,0.038-25.003,0.555-37.509,0.579c-17.659,0.035-35.308,0.375-52.97,0.474c-38.505,0.216-77.24,0.803-115.701,2.534
	c-48.97,2.205-97.843,2.109-146.816,3.426C97.431,168.453,79.364,167.378,61.394,169.666z"/>
<path style="fill:#ED6D66;" d="M412.547,187.907c15.884-0.704,31.866-1.329,47.673-2.558c5.764-0.448,11.019,0.969,16.645,1.095
	c0.091,9.285,3.911,18.899,4.615,28.254c0.383,5.093-0.038,10.361-0.463,15.417c-0.316,3.757,0.929,12.726-1.092,16.037
	c-1.665,2.729-6.922,2.356-10.525,2.927c-7.809,1.238-15.514,2.182-23.408,2.799c-11.279,0.881-22.528,1.828-33.863,1.343
	c-0.898-14.594,0.228-28.137-2.837-42.512C408.271,205.921,406.68,193.684,412.547,187.907z"/>
<path d="M511.146,200.549c-0.186-6.431-0.398-12.862-0.637-19.291c-0.199-5.37,0.055-11.262-2.87-16.027
	c-2.751-4.481-7.503-6.07-12.502-6.39c-7.246-0.464-14.535-0.762-21.794-1.129c-2.806-0.142-5.613-0.272-8.42-0.399
	c-0.103-14.92-0.342-29.839-0.774-44.758c-0.186-6.431-0.398-12.862-0.637-19.291c-0.199-5.37,0.055-11.263-2.87-16.027
	c-2.752-4.481-7.503-6.07-12.502-6.39c-7.246-0.464-14.535-0.763-21.794-1.129c-55.502-2.804-111.1-2.851-166.591,0.224
	c-9.841,0.545-19.665,1.357-29.48,2.261c-46.563,0.275-93.128,0.224-139.692,0.636c-13.942,0.123-27.884,0.285-41.826,0.429
	c-6.801,0.071-13.602,0.135-20.403,0.212c-5.476,0.061-11.112,0.134-15.929,3.106c-9.538,5.885-8.773,17.846-9.059,27.593
	c-0.406,13.854-1.32,27.693-1.894,41.541c-2.299,55.459-1.919,110.871,1.244,166.289c0.366,6.411,0.678,12.824,1.058,19.234
	c0.327,5.52,0.221,11.705,4.191,16.065c7.173,7.877,20.963,5.661,30.419,5.706c3.107,0.015,6.215,0.052,9.322,0.082
	c0.452,15.636,1.115,31.271,2.007,46.907c0.366,6.411,0.678,12.824,1.058,19.234c0.327,5.52,0.221,11.705,4.191,16.065
	c7.173,7.877,20.963,5.661,30.419,5.706c27.645,0.132,55.294,0.77,82.936,1.195c55.676,0.857,111.357,1.984,167.041,2.155
	c27.682,0.085,55.366-0.107,83.04-0.814c13.496-0.345,26.989-0.811,40.475-1.424c6.744-0.306,13.487-0.642,20.226-1.034
	c6.192-0.36,12.594-0.658,17.884-4.284c8.81-6.039,9.207-17.505,9.863-27.123c0.968-14.191,1.807-28.39,2.521-42.596
	c1.393-27.734,2.202-55.484,2.504-83.251C512.176,256.065,511.95,228.307,511.146,200.549z M450.472,84.506
	c1.464,4.979,0.5,11.743,0.622,16.88c0.169,7.107,0.306,14.215,0.411,21.324c0.168,11.351,0.245,22.703,0.294,34.055
	c-32.957-1.237-65.939-1.461-98.902-0.647c4.25-2.729,8.443-5.562,12.654-8.386c10.588-7.1,21.077-14.336,31.443-21.758
	c9.855-7.057,19.752-14.108,29.316-21.556c4.873-3.795,9.685-7.644,14.404-11.629C443.864,90.129,447.499,87.548,450.472,84.506z
	 M32.435,85.529L71.2,84.935c104.513-1.6,209.05-3.715,313.541-6.424c10.49,0.357,20.976,0.814,31.457,1.382
	c6.09,0.33,12.179,0.694,18.265,1.092c2.402,0.157,7.391-0.251,11.186,0.433c-2.819,1.747-5.501,3.807-8.183,5.571
	c-5.167,3.398-10.292,6.846-15.4,10.333c-10.507,7.173-20.867,14.559-31.411,21.68c-10.279,6.941-20.593,13.838-30.978,20.62
	c-8.557,5.588-17.179,10.951-25.319,17.068c-9.204,0.34-18.407,0.736-27.606,1.246c-9.841,0.545-19.665,1.357-29.48,2.261
	c-45.68,0.27-91.361,0.231-137.041,0.618c-9.537-6.33-20.219-11.123-30.163-16.766c-10.993-6.239-21.934-12.534-32.641-19.257
	c-19.27-12.1-38.59-24.901-56.584-38.952C24.576,84.963,29.429,85.575,32.435,85.529z M43.443,342.129
	c-6.284-0.132-12.584-0.163-18.863-0.423c-2.178-0.09-4.215-0.192-5.835-0.824c4.686-2.905,9.335-5.868,14.006-8.805
	c4.681-2.944,9.853-5.947,14.366-9.506c0.07,6.542,0.165,13.084,0.312,19.625C46.1,342.173,44.771,342.157,43.443,342.129z
	 M50.364,192.173c-0.406,13.854-1.319,27.693-1.894,41.541c-1.065,25.686-1.539,51.361-1.442,77.032
	c-7.207,3.172-13.721,9.288-19.653,14.366C23.3,328.6,19.24,332.095,15.24,335.66c-3.244-25.458-3.335-51.739-4.043-77.363
	c-0.728-26.361-1.04-52.745-0.75-79.115c0.286-25.938,0.346-52.231,3.159-78.04c0.319-2.932,0.417-6.848,1.537-10.022
	c18.311,14.696,36.752,28.858,56.581,41.595c10.62,6.822,21.411,13.459,32.476,19.539c5.254,2.887,10.59,5.94,16.039,8.757
	c-8.162,0.085-16.324,0.167-24.486,0.251c-6.801,0.071-13.602,0.135-20.403,0.212c-5.476,0.061-11.112,0.134-15.929,3.106
	C49.885,170.465,50.65,182.426,50.364,192.173z M494.58,405.624c-0.305,5.296-0.066,11.154-1.694,16.275
	c-1.799,5.658-6.383,6.346-11.763,6.722c-12.793,0.894-25.622,1.433-38.435,1.953c-26.309,1.068-52.638,1.616-78.967,1.845
	c-51.987,0.451-103.976-0.323-155.958-0.92c-26.297-0.302-52.593-0.604-78.89-0.906c-12.81-0.147-25.626-0.2-38.434-0.47
	c-6.284-0.132-12.584-0.163-18.863-0.423c-4.613-0.191-8.616-0.404-9.296-5.691c-3.289-25.568-3.375-51.976-4.085-77.718
	c-0.728-26.361-1.04-52.745-0.75-79.115c0.286-25.938,0.346-52.231,3.159-78.04c0.439-4.031,0.45-9.931,3.292-13.191
	c3.177-3.644,11.243-2.356,15.536-2.422l38.765-0.594c104.513-1.6,209.05-3.715,313.54-6.424c10.49,0.357,20.976,0.814,31.457,1.382
	c6.09,0.33,12.179,0.694,18.265,1.092c3.901,0.255,14.642-0.991,15.975,3.396c1.517,4.99,0.532,11.825,0.655,17.005
	c0.169,7.107,0.306,14.215,0.411,21.324c0.19,12.863,0.273,25.729,0.319,38.594C499.007,301.42,497.573,353.588,494.58,405.624z"/>
<path d="M478.012,182.73c-3.779-3.308-10.884-1.949-15.444-1.935c-14.119,0.043-28.159,0.871-42.177,2.552
	c-0.529,0.063-0.967,0.258-1.332,0.523c-0.01,0.001-0.02,0.002-0.03,0.003c-4.156,0.444-8.571,0.754-11.407,4.214
	c-2.591,3.161-2.453,7.361-2.428,11.226c0.041,6.239,0.277,12.479,0.558,18.712c0.266,5.901,0.661,11.796,1.185,17.68
	c0.488,5.483,0.363,11.956,2.002,17.236c1.146,3.69,4.199,5.353,7.871,5.644c6.278,0.497,12.865-0.153,19.144-0.489
	c12.244-0.654,24.452-1.944,36.573-3.794c3.954-0.603,8.371-0.873,10.526-4.784c2.404-4.365,2.146-11.28,2.444-16.118
	c0.706-11.44-0.013-22.99-2.156-34.251C482.437,194.402,481.917,186.149,478.012,182.73z M477.573,233.401
	c-0.153,3.367,0.519,11.189-2.524,12.827c-1.556,0.838-4.701,0.739-6.518,0.993c-2.61,0.365-5.226,0.691-7.844,0.993
	c-4.931,0.568-9.873,1.036-14.822,1.404c-4.62,0.344-9.248,0.598-13.877,0.764c-2.315,0.083-4.631,0.143-6.948,0.183
	c-2.077,0.035-5.836,0.889-7.688,0.011c-2.091-0.991-2.263-10.397-2.574-12.911c-0.606-4.898-1.125-9.807-1.553-14.723
	c-0.766-8.795-1.858-18.127-1.25-26.955c0.225-3.262,1.371-4.461,4.559-5.216c2.94-0.697,6.315-0.757,9.318-1.053
	c5.203-0.512,10.416-0.863,15.63-1.227c4.494-0.314,8.994-0.542,13.496-0.722c2.531,0.027,5.063,0.073,7.593,0.147
	c2.287,0.067,4.59,0.1,6.872,0.258c3.3,0.229,3.176,1.809,3.953,4.85c2.263,8.854,3.667,17.938,4.136,27.065
	C477.759,224.522,477.774,228.967,477.573,233.401z"/>
<path d="M354.132,224.288c11.809-3.84,27.419-13.292,38.862-3.414c1.942,1.676,4.471-0.861,2.807-2.807
	c-7.575-8.86-20.022-8.555-30.343-5.527c-11.608,3.406-26.999,11.725-37.498,1.367c-3.547-3.5-8.627,1.73-5.416,5.416
	C330.48,228.437,343.609,227.71,354.132,224.288z"/>
<path d="M345.221,237.712c12.771-1.737,25.44-13.108,38.556-7.722c2.123,0.872,3.524-2.604,1.551-3.679
	c-10.745-5.854-21.652-1.047-32.387,2.106c-12.541,3.683-24.728,1.186-35.517-5.94c-3.677-2.428-8.284,3.353-4.777,6.191
	C321.793,236.067,333.55,239.299,345.221,237.712z"/>
<path d="M464.855,300.142c-12.354-1.489-25.253-0.62-37.686-0.683c-12.56-0.064-25.125,0.118-37.686,0.194
	c-25.132,0.152-50.245,0.727-75.372,1.077c-2.122,0.03-2.126,3.269,0,3.299c25.126,0.349,50.24,0.925,75.372,1.077
	c12.221,0.074,24.446,0.239,36.667,0.199c12.759-0.041,26.028,0.84,38.704-0.688C467.724,304.269,467.73,300.488,464.855,300.142z"
	/>
<path d="M464.855,331.148c-12.354-1.489-25.253-0.62-37.686-0.684c-12.56-0.064-25.125,0.118-37.686,0.194
	c-25.132,0.152-50.245,0.727-75.372,1.077c-2.122,0.029-2.126,3.269,0,3.299c25.126,0.349,50.24,0.925,75.372,1.077
	c12.221,0.074,24.446,0.239,36.667,0.199c12.759-0.041,26.028,0.84,38.704-0.688C467.724,335.275,467.73,331.494,464.855,331.148z"
	/>
<path d="M464.855,362.154c-12.354-1.489-25.253-0.62-37.686-0.683c-12.56-0.064-25.125,0.118-37.686,0.194
	c-25.132,0.152-50.245,0.727-75.372,1.077c-2.122,0.029-2.126,3.269,0,3.299c25.126,0.349,50.24,0.925,75.372,1.076
	c12.221,0.074,24.446,0.239,36.667,0.199c12.759-0.041,26.028,0.84,38.704-0.688C467.724,366.281,467.73,362.5,464.855,362.154z"/>
<path d="M272.768,192.797c-0.019-3.345-5.18-3.351-5.2,0c-0.207,35.694-0.86,71.383-1.083,107.078
	c-0.223,35.673-1.134,71.419,0.077,107.078c0.158,4.639,7.055,4.647,7.213,0c1.21-35.658,0.299-71.405,0.077-107.078
	C273.628,264.18,272.975,228.491,272.768,192.797z"/>
<g>
</g>
<g>
</g>
<g>
</g>
<g>
</g>
<g>
</g>
<g>
</g>
<g>
</g>
<g>
</g>
<g>
</g>
<g>
</g>
<g>
</g>
<g>
</g>
<g>
</g>
<g>
</g>
<g>
</g>
</svg>
